<?xml version="1.0" encoding="UTF-8" standalone="no"?>
<svg width="50px" height="50px" viewBox="0 0 50 50" version="1.1" xmlns="http://www.w3.org/2000/svg" xmlns:xlink="http://www.w3.org/1999/xlink" xmlns:sketch="http://www.bohemiancoding.com/sketch/ns">
    <!-- Generator: Sketch 3.4 (15588) - http://www.bohemiancoding.com/sketch -->
    <title>Dribbblesvg</title>
    <desc>Created with Sketch.</desc>
    <defs></defs>
    <g id="Welcome" stroke="none" stroke-width="1" fill="none" fill-rule="evenodd" sketch:type="MSPage">
        <g id="Portfolio" sketch:type="MSArtboardGroup" transform="translate(-877.000000, -926.000000)" fill="#FFFFFF">
            <path d="M902,926 C888.193467,926 877,937.193467 877,951 C877,964.81072 888.193467,976 902,976 C915.808626,976 927,964.81072 927,951 C927,937.193467 915.808626,926 902,926 L902,926 Z M917.862647,937.518007 C920.676717,940.819933 922.464824,945.013819 922.770519,949.613903 C918.268844,949.375209 912.879397,949.379397 908.54732,949.787688 C908.002931,948.403685 907.439698,947.048995 906.83459,945.750838 C911.830402,943.590034 915.674623,940.750838 917.862647,937.518007 L917.862647,937.518007 Z M902,930.16876 C907.052345,930.16876 911.683836,931.96943 915.291457,934.963568 C913.025963,937.829983 909.481156,940.319514 905.05067,942.199749 C902.626047,937.725293 899.845477,933.870603 896.876466,930.828308 C898.518007,930.411642 900.228643,930.16876 902,930.16876 L902,930.16876 Z M892.573702,932.438442 C895.58459,935.428392 898.409129,939.251675 900.879816,943.70938 C896.175042,945.141541 890.783501,945.966499 885.036013,945.966499 C883.94933,945.966499 882.879397,945.926717 881.819933,945.865997 C883.312814,939.997069 887.291039,935.128978 892.573702,932.438442 L892.573702,932.438442 Z M881.202261,950.005444 C882.387353,950.057789 883.585008,950.078727 884.801508,950.066164 C891.359296,949.984506 897.475293,948.964824 902.718174,947.281407 C903.208124,948.311558 903.677136,949.366834 904.125209,950.44933 C903.409129,950.61474 902.774707,950.796901 902.263819,951.010469 C895.086265,954.017169 889.43928,958.876884 886.376047,964.75 C883.143216,961.077471 881.166667,956.276382 881.166667,951 C881.166667,950.667085 881.187605,950.336265 881.202261,950.005444 L881.202261,950.005444 Z M902,971.833333 C897.184255,971.833333 892.762144,970.187605 889.231993,967.440536 C892.004188,961.950586 896.951843,957.407035 903.193467,954.578308 C903.78392,954.308208 904.562814,954.086265 905.458961,953.891541 C906.19598,955.953936 906.870184,958.089615 907.44598,960.296482 C908.352596,963.751256 908.982831,967.153685 909.374372,970.468174 C907.079564,971.34129 904.600503,971.833333 902,971.833333 L902,971.833333 Z M913.258375,968.514657 C912.866834,965.16876 912.230318,961.732831 911.31742,958.242462 C910.873534,956.55067 910.36474,954.909129 909.824539,953.303183 C913.909548,952.968174 918.811139,953.020519 922.69933,953.303183 C921.991625,959.691374 918.404941,965.19598 913.258375,968.514657 L913.258375,968.514657 Z" id="Dribbble" sketch:type="MSShapeGroup"></path>
        </g>
    </g>
</svg>