<?xml version="1.0" encoding="UTF-8" standalone="no"?>
<svg width="62px" height="63px" viewBox="0 0 62 63" version="1.1" xmlns="http://www.w3.org/2000/svg" xmlns:xlink="http://www.w3.org/1999/xlink" xmlns:sketch="http://www.bohemiancoding.com/sketch/ns">
    <!-- Generator: Sketch 3.4 (15588) - http://www.bohemiancoding.com/sketch -->
    <title>Page 1svg</title>
    <desc>Created with Sketch.</desc>
    <defs></defs>
    <g id="Welcome" stroke="none" stroke-width="1" fill="none" fill-rule="evenodd" sketch:type="MSPage">
        <g id="Portfolio" sketch:type="MSArtboardGroup" transform="translate(-302.000000, -918.000000)" fill="#FCFDFD">
            <path d="M340.844276,974.231366 C351.471131,970.7303 359.168838,960.828003 359.168838,949.113345 C359.168838,934.71299 347.487026,923.031178 333.084739,923.031178 C318.715299,923.031178 307.031555,934.71299 307.031555,949.113345 C307.031555,960.828003 314.760177,970.759282 325.417946,974.231366 L325.417946,969.310166 C317.809118,971.031716 316.209293,965.747271 316.209293,965.747271 C315.001696,962.638433 313.251163,961.823063 313.251163,961.823063 C310.805055,960.163342 313.430854,960.192324 313.430854,960.192324 C316.118482,960.373947 317.536684,962.939849 317.536684,962.939849 C320.073604,967.287199 324.270246,965.718289 325.568655,965.084542 C325.960882,963.181369 327.440913,962.789141 327.923952,962.638433 C321.070597,961.913875 313.734202,959.438784 313.734202,947.573417 C313.734202,944.252041 314.910885,941.535431 316.84304,939.421653 C316.541624,938.637198 315.484735,935.557342 317.144457,931.362632 C317.144457,931.362632 319.710359,930.547263 325.508758,934.47147 C327.923952,933.806809 330.518837,933.474478 333.115654,933.445496 C335.681556,933.474478 338.278373,933.806809 340.724482,934.47147 C346.520949,930.547263 349.055937,931.362632 349.055937,931.362632 C350.715658,935.557342 349.689684,938.637198 349.357353,939.421653 C351.320423,941.535431 352.497106,944.252041 352.497106,947.573417 C352.497106,959.438784 345.160711,961.88296 338.309288,962.607518 C339.545867,963.453803 340.844276,965.053627 340.844276,968.102569 L340.844276,974.231366 Z M363.999227,949.113345 C363.999227,966.201328 350.172722,980.027832 333.084739,980.027832 C316.027671,980.027832 302.201166,966.201328 302.201166,949.113345 C302.201166,932.056276 316.027671,918.200789 333.084739,918.200789 C350.172722,918.200789 363.999227,932.056276 363.999227,949.113345 L363.999227,949.113345 Z" id="Page-1" sketch:type="MSShapeGroup"></path>
        </g>
    </g>
</svg>