<?xml version="1.0" encoding="UTF-8" standalone="no"?>
<svg width="58px" height="47px" viewBox="0 0 58 47" version="1.1" xmlns="http://www.w3.org/2000/svg" xmlns:xlink="http://www.w3.org/1999/xlink" xmlns:sketch="http://www.bohemiancoding.com/sketch/ns">
    <!-- Generator: Sketch 3.4 (15588) - http://www.bohemiancoding.com/sketch -->
    <title>Twittersvg</title>
    <desc>Created with Sketch.</desc>
    <defs></defs>
    <g id="Welcome" stroke="none" stroke-width="1" fill="none" fill-rule="evenodd" sketch:type="MSPage">
        <g id="Portfolio" sketch:type="MSArtboardGroup" transform="translate(-515.000000, -927.000000)" fill="#FFFFFF">
            <path d="M566.564727,938.626844 C566.585563,939.132877 566.59747,939.641886 566.59747,940.153872 C566.59747,955.727771 554.744399,973.683 533.068342,973.683 C526.412525,973.683 520.21809,971.733286 515,968.390494 C515.922765,968.497654 516.860414,968.55421 517.812946,968.55421 C523.334655,968.55421 528.415818,966.669983 532.449196,963.508767 C527.29064,963.413514 522.938759,960.005235 521.441498,955.322945 C522.158874,955.462848 522.897086,955.537265 523.656135,955.537265 C524.73071,955.537265 525.772542,955.391408 526.760794,955.123509 C521.370058,954.040003 517.30989,949.277343 517.30989,943.568104 L517.30989,943.419271 C518.899428,944.300363 520.715192,944.830209 522.647046,944.892719 C519.485831,942.779289 517.405143,939.171573 517.405143,935.084616 C517.405143,932.923559 517.985593,930.899428 519.000635,929.15808 C524.814057,936.287187 533.496982,940.981384 543.290202,941.472534 C543.090765,940.609302 542.986582,939.710349 542.986582,938.784607 C542.986582,932.277623 548.261228,927 554.771189,927 C558.161608,927 561.224594,928.431775 563.373744,930.723805 C566.058694,930.193959 568.579927,929.214637 570.857074,927.863232 C569.978959,930.613668 568.109615,932.923559 565.674705,934.382123 C568.059011,934.09934 570.330205,933.465311 572.443635,932.527663 C570.863028,934.891133 568.865687,936.965866 566.564727,938.626844" id="Twitter" sketch:type="MSShapeGroup"></path>
        </g>
    </g>
</svg>