<?xml version="1.0" encoding="UTF-8" standalone="no"?>
<svg width="66px" height="42px" viewBox="0 0 66 42" version="1.1" xmlns="http://www.w3.org/2000/svg" xmlns:xlink="http://www.w3.org/1999/xlink" xmlns:sketch="http://www.bohemiancoding.com/sketch/ns">
    <!-- Generator: Sketch 3.4 (15588) - http://www.bohemiancoding.com/sketch -->
    <title>Behancesvg</title>
    <desc>Created with Sketch.</desc>
    <defs></defs>
    <g id="Welcome" stroke="none" stroke-width="1" fill="none" fill-rule="evenodd" sketch:type="MSPage">
        <g id="Portfolio" sketch:type="MSArtboardGroup" transform="translate(-1033.000000, -930.000000)" fill="#FFFFFF">
            <path d="M1063.26152,934.295715 C1064.49065,936.008385 1065.10834,938.054855 1065.10834,940.441363 C1065.10834,942.899623 1064.49065,944.877461 1063.24592,946.374878 C1062.55025,947.210936 1061.5239,947.978362 1060.16998,948.670917 C1062.22581,949.416506 1063.77938,950.601961 1064.82445,952.221043 C1065.86952,953.849484 1066.39674,955.814844 1066.39674,958.126481 C1066.39674,960.516109 1065.79777,962.656167 1064.59984,964.552895 C1063.83865,965.806982 1062.89029,966.867652 1061.74851,967.722428 C1060.46011,968.708227 1058.94397,969.382065 1057.19386,969.74706 C1055.44688,970.112056 1053.55015,970.292994 1051.50056,970.292994 L1033.3475,970.292994 L1033.3475,930 L1052.82016,930 C1057.73044,930.071751 1061.20881,931.503656 1063.26152,934.295715 L1063.26152,934.295715 Z M1041.38364,937.000424 L1041.38364,945.885098 L1051.17612,945.885098 C1052.92311,945.885098 1054.34565,945.551299 1055.43752,944.880581 C1056.52939,944.222341 1057.07532,943.036886 1057.07532,941.346053 C1057.07532,939.468042 1056.35157,938.226434 1054.9103,937.627467 C1053.66558,937.206319 1052.07769,937.000424 1050.14977,937.000424 L1041.38364,937.000424 L1041.38364,937.000424 Z M1041.38364,952.551723 L1041.38364,963.29257 L1051.16364,963.29257 C1052.91375,963.29257 1054.27078,963.061718 1055.24722,962.587536 C1057.01293,961.707803 1057.89578,960.035688 1057.89578,957.56183 C1057.89578,955.459207 1057.03788,954.021063 1055.32833,953.234919 C1054.37061,952.795053 1053.02917,952.567321 1051.3009,952.551723 L1041.38364,952.551723 L1041.38364,952.551723 Z M1090.75472,941.099603 C1092.83239,942.029249 1094.5513,943.504829 1095.90209,945.510744 C1097.12498,947.279567 1097.91737,949.332276 1098.28236,951.668871 C1098.49138,953.035264 1098.57561,955.013102 1098.53505,957.580548 L1076.83498,957.580548 C1076.95665,960.572262 1077.99236,962.665526 1079.94836,963.869699 C1081.14006,964.621527 1082.57196,964.992762 1084.24408,964.992762 C1086.01914,964.992762 1087.4604,964.534178 1088.57099,963.623249 C1089.17619,963.130349 1089.70965,962.447153 1090.17447,961.57366 L1098.13262,961.57366 C1097.91737,963.339364 1096.9534,965.136264 1095.24073,966.961241 C1092.57034,969.856247 1088.83304,971.30375 1084.03194,971.30375 C1080.06379,971.30375 1076.5667,970.083979 1073.53443,967.638198 C1070.50216,965.201776 1068.98914,961.218023 1068.98914,955.715016 C1068.98914,950.545808 1070.35865,946.590132 1073.09456,943.832389 C1075.82735,941.084005 1079.38059,939.705133 1083.74806,939.705133 C1086.34046,939.705133 1088.67706,940.169957 1090.75472,941.099603 L1090.75472,941.099603 Z M1079.10295,947.82862 C1078.00172,948.964161 1077.30605,950.508373 1077.02216,952.442536 L1090.44588,952.442536 C1090.30862,950.371109 1089.61606,948.80818 1088.37133,947.735032 C1087.12972,946.665003 1085.58863,946.134667 1083.75118,946.134667 C1081.7515,946.134667 1080.20105,946.696199 1079.10295,947.82862 L1079.10295,947.82862 Z M1075.01001,936.891237 L1092.2771,936.891237 L1092.2771,931.88113 L1075.01001,931.88113 L1075.01001,936.891237 Z" id="Behance" sketch:type="MSShapeGroup"></path>
        </g>
    </g>
</svg>