<?xml version="1.0" encoding="UTF-8" standalone="no"?>
<svg width="205px" height="206px" viewBox="0 0 205 206" version="1.1" xmlns="http://www.w3.org/2000/svg" xmlns:xlink="http://www.w3.org/1999/xlink" xmlns:sketch="http://www.bohemiancoding.com/sketch/ns">
    <!-- Generator: Sketch 3.5.2 (25235) - http://www.bohemiancoding.com/sketch -->
    <title>GIthubLargesvg</title>
    <desc>Created with Sketch.</desc>
    <defs></defs>
    <g id="Welcome" stroke="none" stroke-width="1" fill="none" fill-rule="evenodd" sketch:type="MSPage">
        <g id="Portfolio" sketch:type="MSArtboardGroup" transform="translate(-624.000000, -4770.000000)" fill="#424242">
            <g id="PortfolioHome" sketch:type="MSLayerGroup" transform="translate(-124.000000, 0.000000)">
                <g id="Github" transform="translate(124.000000, 4714.000000)" sketch:type="MSShapeGroup">
                    <path d="M752.187491,241.865453 C787.439052,230.251666 812.974,197.403622 812.974,158.543584 C812.974,110.774515 774.222921,72.0234364 726.447443,72.0234364 C678.780924,72.0234364 640.023436,110.774515 640.023436,158.543584 C640.023436,197.403622 665.660935,230.347807 701.015045,241.865453 L701.015045,225.540776 C675.774928,231.251529 670.467966,213.721889 670.467966,213.721889 C666.462107,203.409206 660.655213,200.70445 660.655213,200.70445 C652.540945,195.198797 661.251285,195.294938 661.251285,195.294938 C670.166725,195.897419 674.871206,204.409068 674.871206,204.409068 C683.286715,218.830161 697.207876,213.625749 701.514976,211.523474 C702.816079,205.21024 707.72566,203.909137 709.328004,203.409206 C686.593952,201.00569 662.257557,192.795281 662.257557,153.435312 C662.257557,142.417597 666.160866,133.406017 672.57024,126.394161 C671.570378,123.791955 668.06445,113.575412 673.570103,99.6606596 C673.570103,99.6606596 682.081752,96.9559035 701.316285,109.973343 C709.328004,107.768518 717.935794,106.666106 726.549993,106.569965 C735.061643,106.666106 743.675842,107.768518 751.79011,109.973343 C771.018234,96.9559035 779.427333,99.6606596 779.427333,99.6606596 C784.932986,113.575412 781.529608,123.791955 780.427196,126.394161 C786.93912,133.406017 790.842429,142.417597 790.842429,153.435312 C790.842429,192.795281 766.506034,200.90314 743.778392,203.306656 C747.880392,206.113962 752.187491,211.420924 752.187491,221.534917 L752.187491,241.865453 Z M828.997436,158.543584 C828.997436,215.228092 783.131952,261.093577 726.447443,261.093577 C669.865484,261.093577 624,215.228092 624,158.543584 C624,101.961625 669.865484,56 726.447443,56 C783.131952,56 828.997436,101.961625 828.997436,158.543584 L828.997436,158.543584 Z" id="GIthubLarge"></path>
                </g>
            </g>
        </g>
    </g>
</svg>