<?xml version="1.0" encoding="UTF-8" standalone="no"?>
<svg width="58px" height="55px" viewBox="0 0 58 55" version="1.1" xmlns="http://www.w3.org/2000/svg" xmlns:xlink="http://www.w3.org/1999/xlink" xmlns:sketch="http://www.bohemiancoding.com/sketch/ns">
    <!-- Generator: Sketch 3.4 (15588) - http://www.bohemiancoding.com/sketch -->
    <title>Linkedinsvg</title>
    <desc>Created with Sketch.</desc>
    <defs></defs>
    <g id="Welcome" stroke="none" stroke-width="1" fill="none" fill-rule="evenodd" sketch:type="MSPage">
        <g id="Portfolio" sketch:type="MSArtboardGroup" transform="translate(-698.000000, -918.000000)" fill="#FFFFFF">
            <path d="M699.390436,972.152 L711.529804,972.152 L711.529804,935.613923 L699.390436,935.613923 L699.390436,972.152 Z M705.461699,930.625574 C709.695481,930.625574 712.328571,927.821996 712.328571,924.314366 C712.255956,920.730963 709.695481,918 705.540628,918 C701.385776,918 698.673756,920.730963 698.673756,924.314366 C698.673756,927.821996 701.306846,930.625574 705.379612,930.625574 L705.461699,930.625574 L705.461699,930.625574 Z M718.254604,972.152 C718.254604,972.152 718.41562,939.042624 718.254604,935.61708 L730.400286,935.61708 L730.400286,940.911676 L730.318199,940.911676 C731.915734,938.420659 734.791927,934.758326 741.343082,934.758326 C749.330754,934.758326 755.326244,939.97715 755.326244,951.204092 L755.326244,972.152 L743.180562,972.152 L743.180562,952.605881 C743.180562,947.693305 741.422011,944.343534 737.027213,944.343534 C733.674285,944.343534 731.675788,946.600919 730.801248,948.78569 C730.472901,949.565514 730.400286,950.657899 730.400286,951.750285 L730.400286,972.152 L718.254604,972.152 L718.254604,972.152 Z" id="Linkedin" sketch:type="MSShapeGroup"></path>
        </g>
    </g>
</svg>