<?xml version="1.0" encoding="UTF-8" standalone="no"?>
<svg width="1440px" height="867px" viewBox="0 0 1440 867" version="1.1" xmlns="http://www.w3.org/2000/svg" xmlns:xlink="http://www.w3.org/1999/xlink" xmlns:sketch="http://www.bohemiancoding.com/sketch/ns">
    <!-- Generator: Sketch 3.4.2 (15857) - http://www.bohemiancoding.com/sketch -->
    <title>PortfolioSVG</title>
    <desc>Created with Sketch.</desc>
    <defs>
        <filter x="-50%" y="-50%" width="200%" height="200%" filterUnits="objectBoundingBox" id="filter-1">
            <feGaussianBlur stdDeviation="50" in="SourceGraphic" result="blur"></feGaussianBlur>
        </filter>
    </defs>
    <g id="Welcome" stroke="none" stroke-width="1" fill="none" fill-rule="evenodd" sketch:type="MSPage">
        <g id="Portfolio" sketch:type="MSArtboardGroup">
            <rect id="Rectangle-1" fill="#7A6E87" sketch:type="MSShapeGroup" x="0" y="0" width="1440" height="875"></rect>
            <path d="M58.9354299,867 L335.317766,540.967499 L415.953229,636.088563 L435,612 L448.197174,628.690544 L592.075831,448.060826 L621.506417,498.137884 L731.952868,315 L855.084448,519.171858 L899.525662,473.338803 L1005.45311,640.833227 L1163.59573,449.07448 L1440,847.37684 L1440,923.999997 L1440,874 L53.0014315,874 L58.9354299,867 L1440,867 L1440,1057 L2.13162821e-14,1057 L2.13162821e-14,867 L58.9354299,867 Z" id="Triangle-1" fill-opacity="0.441717618" fill="#3F2D59" sketch:type="MSShapeGroup"></path>
            <path d="M191.736842,875 L443,689 L640.37014,835.105169 L876,616 L1154.53352,875 L191.736842,875 Z" id="Triangle-10" fill="#6D5C84" sketch:type="MSShapeGroup"></path>
            <g id="Moon" sketch:type="MSLayerGroup" transform="translate(1186.000000, 290.000000)" fill="#FFFFFF">
                <circle id="Oval-1" filter="url(#filter-1)" sketch:type="MSShapeGroup" cx="75.5" cy="75.5" r="75.5"></circle>
                <circle id="Oval-2" sketch:type="MSShapeGroup" cx="75" cy="75" r="47"></circle>
            </g>
            <path d="M114.652174,875 L293,721 L466.780802,871.056461 L692,529 L919.81573,875 L114.652174,875 Z M985.390135,875 L1147,752 L1308.60987,875 L985.390135,875 Z" id="Triangle-12" fill="#7D6A97" sketch:type="MSShapeGroup"></path>
            <path d="M117.67421,741.277883 C184.42421,691.527883 310.402332,675 310.402332,675 L310.402332,874 L0,874 C0,874 50.9242096,791.027883 117.67421,741.277883 Z" id="Rectangle-3" fill="#54436B" sketch:type="MSShapeGroup" transform="translate(155.201166, 774.500000) scale(-1, 1) translate(-155.201166, -774.500000) "></path>
            <path d="M768.694987,422.814979 L767.362747,422.814979 L757.5,439 L747.637252,422.814978 L746.700826,422.814978 L732.5,446 L718.299174,422.814978 L717.362748,422.814978 L707.5,439 L697.637253,422.814979 L696.305013,422.814979 L690,433 L683.772244,422.93978 L657.320798,436.036432 L673.246708,412.457253 L731,313.157957 L794.374091,418.025107 L806.539346,436.036432 L780.960347,423.371746 L775,433 L768.694987,422.814979 Z" id="Triangle-18" fill="#ABA3B3" sketch:type="MSShapeGroup"></path>
            <path d="M1084.49964,545.970986 L1163.5,450 L1233.77569,549.806595 L1233.91514,550 L1235,550 L1234.38755,550.655184 L1249.34332,571.397619 L1225.67434,559.976287 L1213.5,573 L1204.65167,563.534347 L1190,579 L1179.73684,568.166667 L1160,589 L1140.26316,568.166667 L1130,579 L1112.42675,560.450456 L1103.5,570 L1094.46039,559.337896 L1068.21875,564.625 L1084.49964,545.970986 Z" id="Triangle-18" fill="#ABA3B3" sketch:type="MSShapeGroup"></path>
            <g id="Tree" sketch:type="MSLayerGroup" transform="translate(359.000000, 605.000000)" fill="#6D5C84">
                <polygon id="Triangle-30" sketch:type="MSShapeGroup" points="615 80 629 129 601 129 "></polygon>
                <polygon id="Triangle-30" sketch:type="MSShapeGroup" points="575 20 589.650414 83.0574036 561 69 "></polygon>
                <polygon id="Triangle-30" sketch:type="MSShapeGroup" points="563 34 580 90 546 90 "></polygon>
                <polygon id="Triangle-30" sketch:type="MSShapeGroup" points="475 30 489 79 461 79 "></polygon>
                <polygon id="Triangle-30" sketch:type="MSShapeGroup" points="537 0 553 48 521 48 "></polygon>
                <polygon id="Triangle-30" sketch:type="MSShapeGroup" points="132 100 146 149 118 149 "></polygon>
                <polygon id="Triangle-30" sketch:type="MSShapeGroup" points="119 84 133 133 105 133 "></polygon>
                <polygon id="Triangle-30" sketch:type="MSShapeGroup" points="49 74 63 123 35 123 "></polygon>
                <polygon id="Triangle-30" sketch:type="MSShapeGroup" points="14 106 28 155 0 155 "></polygon>
                <polygon id="Triangle-30" sketch:type="MSShapeGroup" points="164 107 178 156 150 156 "></polygon>
                <polygon id="Triangle-30" sketch:type="MSShapeGroup" points="643.5 83 665 157 622 157 "></polygon>
            </g>
            <g id="Cloud" sketch:type="MSLayerGroup" transform="translate(79.000000, 199.000000)">
                <path d="M140.817509,93.138966 C129.733178,102.867122 113.538513,109 95.5,109 C75.5912506,109 57.9285104,101.52948 46.9032567,90 L14.5018264,90 C6.49268883,90 0,83.5098896 0,75.5 C0,67.4918711 6.48609782,61 14.5018264,61 L35.0134225,61 C35.6984452,35.5043248 62.5169139,15 95.5,15 C109.149144,15 121.742603,18.5113468 131.865251,24.4346867 C142.67243,9.71927049 161.314563,0 182.5,0 C215.913227,0 243,24.1766235 243,54 C243,56.3721669 242.82863,58.7086085 242.496338,61 L259.498174,61 C267.507311,61 274,67.4901104 274,75.5 C274,83.5081289 267.513902,90 259.498174,90 L227.594815,90 C216.51685,101.047488 200.41808,108 182.5,108 C166.34472,108 151.668387,102.348187 140.817509,93.138966 Z" id="Oval-3" fill-opacity="0.370442708" fill="#FFFFFF" sketch:type="MSShapeGroup"></path>
                <rect id="Rectangle-6" fill="#7A6E87" sketch:type="MSShapeGroup" x="17" y="90" width="303" height="75"></rect>
            </g>
            <g id="Cloud-2" sketch:type="MSLayerGroup" transform="translate(1124.000000, 65.000000)">
                <path d="M97.2520923,64.3505584 C89.5969762,71.0718294 78.4125355,75.3090909 65.9546875,75.3090909 C52.2052075,75.3090909 40.0068775,70.1476405 32.3925616,62.1818182 L10.0236422,62.1818182 C4.48773748,62.1818182 0,57.6977419 0,52.1636364 C0,46.6307473 4.49100927,42.1454545 10.0236422,42.1454545 L24.1811449,42.1454545 C24.6542387,24.5302607 43.1757436,10.3636364 65.9546875,10.3636364 C75.3811276,10.3636364 84.0784852,12.7896578 91.0694392,16.8821472 C98.5331469,6.71513234 111.40787,0 126.039062,0 C149.115073,0 167.821875,16.703849 167.821875,37.3090909 C167.821875,38.9480426 167.703523,40.5623113 167.474033,42.1454545 L179.207608,42.1454545 C184.743513,42.1454545 189.23125,46.6295308 189.23125,52.1636364 C189.23125,57.6965254 184.740241,62.1818182 179.207608,62.1818182 L157.182669,62.1818182 C149.53195,69.8146284 138.413736,74.6181818 126.039062,74.6181818 C114.881822,74.6181818 104.74598,70.713293 97.2520923,64.3505584 Z" id="Oval-3" fill-opacity="0.370442708" fill="#FFFFFF" sketch:type="MSShapeGroup"></path>
                <rect id="Rectangle-6" fill="#7A6E87" sketch:type="MSShapeGroup" x="11.740625" y="62.1818182" width="209.259375" height="51.8181818"></rect>
            </g>
            <g id="Tree-Layer-2" sketch:type="MSLayerGroup" transform="translate(249.000000, 657.000000)" fill="#7D6A97">
                <polygon id="Triangle-30" sketch:type="MSShapeGroup" points="544 0 558 49 530 49 "></polygon>
                <polygon id="Triangle-30" sketch:type="MSShapeGroup" points="294 70 308 119 280 119 "></polygon>
                <polygon id="Triangle-30" sketch:type="MSShapeGroup" points="584 60 598 109 570 109 "></polygon>
                <polygon id="Triangle-30" sketch:type="MSShapeGroup" points="596 80 610 129 582 129 "></polygon>
                <polygon id="Triangle-30" sketch:type="MSShapeGroup" points="316 50 330 99 302 99 "></polygon>
                <polygon id="Triangle-30" sketch:type="MSShapeGroup" points="834 110 848 159 820 159 "></polygon>
                <polygon id="Triangle-30" sketch:type="MSShapeGroup" points="844 100 858 149 830 149 "></polygon>
                <polygon id="Triangle-30" sketch:type="MSShapeGroup" points="914 80 928 129 900 129 "></polygon>
                <polygon id="Triangle-30" sketch:type="MSShapeGroup" points="104 80 118 129 90 129 "></polygon>
                <polygon id="Triangle-30" sketch:type="MSShapeGroup" points="14 70 28 119 0 119 "></polygon>
                <polygon id="Triangle-30" sketch:type="MSShapeGroup" points="154 130 168 179 140 179 "></polygon>
                <polygon id="Triangle-30" sketch:type="MSShapeGroup" points="144 135 158 184 130 184 "></polygon>
                <polygon id="Triangle-30" sketch:type="MSShapeGroup" points="784 150 798 199 770 199 "></polygon>
            </g>
            <path d="M290.962863,616.927113 L264.755629,624.740188 L278.815245,608.66443 L335.561422,538.804846 L383.931243,599.935129 L402.634075,620.740188 L380.141475,615.738051 L376.632452,615.738051 L369,626 L361.074053,615.781181 L354,628 L346.900977,615.738051 L345.151654,615.738051 L334,635 L322.973684,615.954545 L316,628 L308.900977,615.738052 L305.632452,615.738052 L298,626 L290.962863,616.927113 Z" id="Triangle-55" fill="#ABA3B3" sketch:type="MSShapeGroup"></path>
            <g id="Cloud-2" sketch:type="MSLayerGroup" transform="translate(501.000000, 22.000000)">
                <path d="M89.7711621,59.2702511 C82.7049011,65.4608955 72.380802,69.3636364 60.88125,69.3636364 C48.1894223,69.3636364 36.9294254,64.6096689 29.9008261,57.2727273 L9.23723863,57.2727273 C4.13565261,57.2727273 0,53.142657 0,48.0454545 C0,42.9493725 4.12424046,38.8181818 9.23723863,38.8181818 L22.3210568,38.8181818 C22.7577588,22.5936612 39.8545326,9.54545455 60.88125,9.54545455 C69.5825793,9.54545455 77.6109094,11.779948 84.0640977,15.5493461 C90.9536741,6.18499031 102.838034,0 116.34375,0 C137.644682,0 154.9125,15.3851241 154.9125,34.3636364 C154.9125,35.8731971 154.803252,37.3600236 154.591415,38.8181818 L165.437761,38.8181818 C170.539347,38.8181818 174.675,42.948252 174.675,48.0454545 C174.675,53.1415366 170.55076,57.2727273 165.437761,57.2727273 L145.091694,57.2727273 C138.029492,64.3029472 127.766526,68.7272727 116.34375,68.7272727 C106.044759,68.7272727 96.6885966,65.1306646 89.7711621,59.2702511 Z" id="Oval-3" fill-opacity="0.370442708" fill="#FFFFFF" sketch:type="MSShapeGroup"></path>
                <rect id="Rectangle-6" fill="#7A6E87" sketch:type="MSShapeGroup" x="10.8375" y="57.2727273" width="193.1625" height="47.7272727"></rect>
            </g>
            <path d="M1246.67421,740.277883 C1313.42421,690.527883 1439.40233,674 1439.40233,674 L1439.40233,873 L1129,873 C1129,873 1179.92421,790.027883 1246.67421,740.277883 Z" id="Rectangle-3" fill="#54436B" sketch:type="MSShapeGroup"></path>
        </g>
    </g>
</svg>